HIERARCHY
ROOT Hips
{
	OFFSET 0.000000 121.760803 0.000000
	CHANNELS 6 Xposition Yposition Zposition Xrotation Yrotation Zrotation 
	JOINT Spine
	{
		OFFSET 0.072000 7.257294 -0.789700
		CHANNELS 3 Xrotation Yrotation Zrotation
		JOINT Spine1
		{
			OFFSET 0.000000 12.508769 -0.658067
			CHANNELS 3 Xrotation Yrotation Zrotation
			JOINT Spine1_split
			{
				OFFSET 0.000000 12.508769 -0.658067
				CHANNELS 3 Xrotation Yrotation Zrotation
				JOINT Spine2
				{
					OFFSET 0.000000 12.508769 -0.658067
					CHANNELS 3 Xrotation Yrotation Zrotation
					JOINT Neck
					{
						OFFSET 0.000000 14.033295 7.520400
						CHANNELS 3 Xrotation Yrotation Zrotation
						JOINT Head
						{
							OFFSET 0.000000 8.198502 5.703100
							CHANNELS 3 Xrotation Yrotation Zrotation
							JOINT HeadTop_End
							{
								OFFSET 0.000000 17.760803 13.332701
								CHANNELS 3 Xrotation Yrotation Zrotation
								End Site
								{
									OFFSET 0.000000 0.000000 0.000000
								}
							}
						}
					}
					JOINT LeftShoulder
					{
						OFFSET 6.292450 5.785301 -0.669000
						CHANNELS 3 Xrotation Yrotation Zrotation
						JOINT LeftShoulder_split
						{
							OFFSET 6.292450 5.785301 -0.669000
							CHANNELS 3 Xrotation Yrotation Zrotation
							JOINT LeftArm
							{
								OFFSET 13.907140 -6.093903 1.965100
								CHANNELS 3 Xrotation Yrotation Zrotation
								JOINT LeftForeArm
								{
									OFFSET 34.140198 0.000000 0.000000
									CHANNELS 3 Xrotation Yrotation Zrotation
									JOINT LeftHand
									{
										OFFSET 40.960209 0.000000 0.000000
										CHANNELS 3 Xrotation Yrotation Zrotation
										JOINT LeftHandThumb1
										{
											OFFSET 10.006996 -7.170425 9.573125
											CHANNELS 3 Xrotation Yrotation Zrotation
											JOINT LeftHandThumb2
											{
												OFFSET 1.835007 -1.059448 1.059443
												CHANNELS 3 Xrotation Yrotation Zrotation
												JOINT LeftHandThumb3
												{
													OFFSET 2.112267 -1.219513 1.219518
													CHANNELS 3 Xrotation Yrotation Zrotation
													JOINT LeftHandThumb4
													{
														OFFSET 4.843811 -2.796570 2.796576
														CHANNELS 3 Xrotation Yrotation Zrotation
														End Site
														{
															OFFSET 0.000000 0.000000 0.000000
														}
													}
												}
											}
										}
										JOINT LeftHandIndex1
										{
											OFFSET 18.389847 -0.922348 4.596882
											CHANNELS 3 Xrotation Yrotation Zrotation
											JOINT LeftHandIndex2
											{
												OFFSET 4.711273 0.000000 0.000000
												CHANNELS 3 Xrotation Yrotation Zrotation
												JOINT LeftHandIndex3
												{
													OFFSET 2.886131 0.000000 0.000000
													CHANNELS 3 Xrotation Yrotation Zrotation
													JOINT LeftHandIndex4
													{
														OFFSET 6.145912 0.000000 0.000000
														CHANNELS 3 Xrotation Yrotation Zrotation
														End Site
														{
															OFFSET 0.000000 0.000000 0.000000
														}
													}
												}
											}
										}
										JOINT LeftHandMiddle1
										{
											OFFSET 18.013008 0.000000 0.000000
											CHANNELS 3 Xrotation Yrotation Zrotation
											JOINT LeftHandMiddle2
											{
												OFFSET 4.946693 0.000000 0.000000
												CHANNELS 3 Xrotation Yrotation Zrotation
												JOINT LeftHandMiddle3
												{
													OFFSET 3.342232 0.000000 0.000000
													CHANNELS 3 Xrotation Yrotation Zrotation
													JOINT LeftHandMiddle4
													{
														OFFSET 4.461754 0.000000 0.000000
														CHANNELS 3 Xrotation Yrotation Zrotation
														End Site
														{
															OFFSET 0.000000 0.000000 0.000000
														}
													}
												}
											}
										}
										JOINT LeftHandRing1
										{
											OFFSET 15.849892 -0.102921 -4.126150
											CHANNELS 3 Xrotation Yrotation Zrotation
											JOINT LeftHandRing2
											{
												OFFSET 3.527054 0.000000 0.000000
												CHANNELS 3 Xrotation Yrotation Zrotation
												JOINT LeftHandRing3
												{
													OFFSET 2.961098 0.000000 0.000000
													CHANNELS 3 Xrotation Yrotation Zrotation
													JOINT LeftHandRing4
													{
														OFFSET 4.927200 0.000000 0.000000
														CHANNELS 3 Xrotation Yrotation Zrotation
														End Site
														{
															OFFSET 0.000000 0.000000 0.000000
														}
													}
												}
											}
										}
										JOINT LeftHandPinky1
										{
											OFFSET 12.791824 -0.832031 -6.799156
											CHANNELS 3 Xrotation Yrotation Zrotation
											JOINT LeftHandPinky2
											{
												OFFSET 3.327133 0.000000 0.000000
												CHANNELS 3 Xrotation Yrotation Zrotation
												JOINT LeftHandPinky3
												{
													OFFSET 3.014900 0.000000 0.000000
													CHANNELS 3 Xrotation Yrotation Zrotation
													JOINT LeftHandPinky4
													{
														OFFSET 5.847786 0.000000 0.000000
														CHANNELS 3 Xrotation Yrotation Zrotation
														End Site
														{
															OFFSET 0.000000 0.000000 0.000000
														}
													}
												}
											}
										}
									}
								}
							}
						}
					}
					JOINT RightShoulder
					{
						OFFSET -6.292450 5.785301 -0.669000
						CHANNELS 3 Xrotation Yrotation Zrotation
						JOINT RightShoulder_split
						{
							OFFSET -6.292450 5.785301 -0.669000
							CHANNELS 3 Xrotation Yrotation Zrotation
							JOINT RightArm
							{
								OFFSET -13.907140 -6.093903 1.965100
								CHANNELS 3 Xrotation Yrotation Zrotation
								JOINT RightForeArm
								{
									OFFSET -34.140198 0.000000 0.000000
									CHANNELS 3 Xrotation Yrotation Zrotation
									JOINT RightHand
									{
										OFFSET -40.960209 0.000000 0.000000
										CHANNELS 3 Xrotation Yrotation Zrotation
										JOINT RightHandThumb1
										{
											OFFSET -10.007050 -7.170456 9.573117
											CHANNELS 3 Xrotation Yrotation Zrotation
											JOINT RightHandThumb2
											{
												OFFSET -1.835007 -1.059448 1.059443
												CHANNELS 3 Xrotation Yrotation Zrotation
												JOINT RightHandThumb3
												{
													OFFSET -2.112267 -1.219513 1.219518
													CHANNELS 3 Xrotation Yrotation Zrotation
													JOINT RightHandThumb4
													{
														OFFSET -4.843834 -2.796585 2.796590
														CHANNELS 3 Xrotation Yrotation Zrotation
														End Site
														{
															OFFSET 0.000000 0.000000 0.000000
														}
													}
												}
											}
										}
										JOINT RightHandIndex1
										{
											OFFSET -18.389870 -0.922424 4.596786
											CHANNELS 3 Xrotation Yrotation Zrotation
											JOINT RightHandIndex2
											{
												OFFSET -4.711273 0.000000 0.000000
												CHANNELS 3 Xrotation Yrotation Zrotation
												JOINT RightHandIndex3
												{
													OFFSET -2.886131 0.000000 0.000000
													CHANNELS 3 Xrotation Yrotation Zrotation
													JOINT RightHandIndex4
													{
														OFFSET -6.145920 0.000000 0.000000
														CHANNELS 3 Xrotation Yrotation Zrotation
														End Site
														{
															OFFSET 0.000000 0.000000 0.000000
														}
													}
												}
											}
										}
										JOINT RightHandMiddle1
										{
											OFFSET -18.013008 0.000000 0.000000
											CHANNELS 3 Xrotation Yrotation Zrotation
											JOINT RightHandMiddle2
											{
												OFFSET -4.946693 0.000000 0.000000
												CHANNELS 3 Xrotation Yrotation Zrotation
												JOINT RightHandMiddle3
												{
													OFFSET -3.342232 0.000000 0.000000
													CHANNELS 3 Xrotation Yrotation Zrotation
													JOINT RightHandMiddle4
													{
														OFFSET -4.461754 0.000000 0.000000
														CHANNELS 3 Xrotation Yrotation Zrotation
														End Site
														{
															OFFSET 0.000000 0.000000 0.000000
														}
													}
												}
											}
										}
										JOINT RightHandRing1
										{
											OFFSET -15.849876 -0.102936 -4.126237
											CHANNELS 3 Xrotation Yrotation Zrotation
											JOINT RightHandRing2
											{
												OFFSET -3.527054 0.000000 0.000000
												CHANNELS 3 Xrotation Yrotation Zrotation
												JOINT RightHandRing3
												{
													OFFSET -2.961098 0.000000 0.000000
													CHANNELS 3 Xrotation Yrotation Zrotation
													JOINT RightHandRing4
													{
														OFFSET -4.927200 0.000000 0.000000
														CHANNELS 3 Xrotation Yrotation Zrotation
														End Site
														{
															OFFSET 0.000000 0.000000 0.000000
														}
													}
												}
											}
										}
										JOINT RightHandPinky1
										{
											OFFSET -12.791786 -0.832077 -6.799222
											CHANNELS 3 Xrotation Yrotation Zrotation
											JOINT RightHandPinky2
											{
												OFFSET -3.327133 0.000000 0.000000
												CHANNELS 3 Xrotation Yrotation Zrotation
												JOINT RightHandPinky3
												{
													OFFSET -3.014900 0.000000 0.000000
													CHANNELS 3 Xrotation Yrotation Zrotation
													JOINT RightHandPinky4
													{
														OFFSET -5.847786 0.000000 0.000000
														CHANNELS 3 Xrotation Yrotation Zrotation
														End Site
														{
															OFFSET 0.000000 0.000000 0.000000
														}
													}
												}
											}
										}
									}
								}
							}
						}
					}
				}
			}
		}
	}
	JOINT LeftUpLeg
	{
		OFFSET 13.026900 -6.336304 -1.092800
		CHANNELS 3 Xrotation Yrotation Zrotation
		JOINT LeftLeg
		{
			OFFSET 0.524474 -46.096886 9.782700
			CHANNELS 3 Xrotation Yrotation Zrotation
			JOINT LeftFoot
			{
				OFFSET -0.524474 -53.427422 -12.948200
				CHANNELS 3 Xrotation Yrotation Zrotation
				JOINT LeftToeBase
				{
					OFFSET 0.192200 -14.009700 16.364100
					CHANNELS 3 Xrotation Yrotation Zrotation
					JOINT LeftToe_End
					{
						OFFSET -1.784700 -0.561700 9.474800
						CHANNELS 3 Xrotation Yrotation Zrotation
						End Site
						{
							OFFSET 0.000000 0.000000 0.000000
						}
					}
				}
			}
		}
	}
	JOINT RightUpLeg
	{
		OFFSET -12.883000 -6.336304 -1.092800
		CHANNELS 3 Xrotation Yrotation Zrotation
		JOINT RightLeg
		{
			OFFSET -0.524587 -46.096825 9.782800
			CHANNELS 3 Xrotation Yrotation Zrotation
			JOINT RightFoot
			{
				OFFSET 0.524587 -53.427383 -12.948300
				CHANNELS 3 Xrotation Yrotation Zrotation
				JOINT RightToeBase
				{
					OFFSET -0.192200 -14.009700 16.364100
					CHANNELS 3 Xrotation Yrotation Zrotation
					JOINT RightToe_End
					{
						OFFSET 1.784700 -0.561700 9.474800
						CHANNELS 3 Xrotation Yrotation Zrotation
						End Site
						{
							OFFSET 0.000000 0.000000 0.000000
						}
					}
				}
			}
		}
	}
}
MOTION
Frames: 4
Frame Time: 0.016667
-7.421266 111.155151 0.828859 2.466215 27.878256 0.731505 3.906084 4.760628 -1.723921 0.662381 3.033930 0.848257 0.000000 0.000000 0.000000 0.672734 3.142734 0.838938 -2.710827 10.151298 -6.043546 -8.274086 5.419471 8.279209 0.000000 0.000000 0.000001 -0.170426 1.694774 -1.674853 0.000000 0.000000 0.000000 -70.359172 1.043901 -26.985323 2.442971 -70.793312 3.754277 -29.776169 28.488659 8.482190 17.563632 -5.694003 -12.929207 10.852335 26.148389 8.654079 20.924877 51.116429 0.219812 0.000002 0.000002 0.000004 13.978255 1.203581 -55.006037 0.372674 1.163860 -65.441880 1.986575 2.154434 -57.665129 -0.000001 0.000001 0.000000 7.502547 1.175427 -63.755267 1.809519 1.478251 -64.569856 0.130987 -0.903799 -43.270795 0.000001 0.000001 0.000000 8.574327 2.179098 -75.148999 -0.208044 1.014711 -57.856811 0.433186 1.760596 -53.580894 -0.000002 -0.000001 0.000001 10.030089 13.637040 -84.750237 0.878816 0.065148 -64.595496 1.137604 1.262757 -55.016190 0.000002 -0.000000 -0.000000 4.020289 15.450598 6.652470 0.000000 0.000000 0.000000 13.125174 -8.190059 63.320805 15.659576 40.753509 -6.335580 0.612799 5.014380 4.113599 15.788501 -2.734486 -17.205873 -2.198347 -31.113557 7.361204 -6.563764 -4.145947 2.404834 0.000000 0.000001 0.000001 2.074289 -2.892235 8.063602 -2.121946 -2.465266 18.435480 -1.984030 -4.777942 13.954161 -0.000001 -0.000001 0.000002 -2.068510 -5.551585 13.796148 0.296914 -5.078000 27.073157 -0.651330 -1.203596 16.209518 -0.000001 -0.000001 -0.000002 -2.790455 -9.236753 13.386735 4.022963 -4.011816 34.251749 2.110244 -3.137634 16.576953 0.000000 -0.000001 0.000002 -5.652145 -13.452085 23.029984 10.777271 -2.332154 36.218448 6.441685 -3.004324 16.514226 0.000001 0.000001 -0.000001 -31.432729 -23.336477 1.630223 27.177394 15.214851 -7.566032 3.184956 -2.850856 -6.719268 -2.984896 -1.725336 -0.462251 0.000000 -0.000001 -0.000000 -3.230687 -27.034876 -8.942382 27.826749 -8.390049 7.555180 -24.469827 -10.867844 1.138090 -1.306441 -0.028483 0.200607 0.000000 0.000001 0.000000 
-7.458146 111.166840 0.708913 2.695665 26.485472 0.561654 3.973251 4.679319 -1.747045 0.707250 2.981743 0.854121 0.000000 0.000000 0.000000 0.717239 3.091651 0.846011 -3.079327 8.772032 -5.694021 -7.482103 4.208286 8.375153 -0.000000 0.000001 -0.000000 -0.162802 1.312169 -1.801277 0.000000 0.000000 0.000000 -70.388904 1.155125 -27.050800 2.651011 -71.946440 3.781615 -30.374934 28.694615 9.100154 17.563630 -5.694005 -12.929210 10.852325 26.148385 8.654077 20.924875 51.116439 0.219812 0.000002 -0.000000 0.000002 13.978255 1.203576 -55.006037 0.372681 1.163859 -65.441880 1.986573 2.154431 -57.665129 0.000001 -0.000000 -0.000000 7.502548 1.175425 -63.755274 1.809519 1.478250 -64.569856 0.130988 -0.903799 -43.270799 -0.000000 0.000000 0.000000 8.574329 2.179102 -75.148999 -0.208041 1.014710 -57.856811 0.433187 1.760594 -53.580891 0.000002 -0.000001 0.000001 10.030090 13.637040 -84.750237 0.878816 0.065147 -64.595503 1.137605 1.262760 -55.016183 -0.000000 -0.000001 0.000002 4.048800 15.426143 6.521216 0.000000 0.000000 0.000000 12.805607 -8.144397 63.265761 15.745731 41.230847 -6.421028 0.382673 5.166922 4.027964 15.788505 -2.734486 -17.205871 -2.198345 -31.113554 7.361195 -6.563766 -4.145950 2.404836 -0.000001 -0.000000 0.000000 2.074625 -2.893187 8.030017 -2.121181 -2.465807 18.407481 -1.983119 -4.778667 13.925539 0.000001 -0.000001 0.000002 -2.069256 -5.550821 13.763153 0.297745 -5.078517 27.045813 -0.651203 -1.204354 16.182062 0.000002 0.000001 0.000004 -2.792302 -9.234417 13.352251 4.022595 -4.012743 34.223226 2.110705 -3.136725 16.548691 -0.000001 -0.000000 0.000003 -5.659327 -13.435647 23.012567 10.777864 -2.332980 36.195450 6.442567 -3.003492 16.495112 0.000000 0.000001 -0.000002 -31.311339 -22.650569 2.317668 27.366797 15.489945 -7.569134 3.017686 -2.634113 -6.863736 -3.033226 -1.803884 -0.483756 -0.000000 -0.000000 -0.000000 -3.790300 -26.014503 -8.860416 27.960827 -8.150781 7.383436 -24.323624 -10.737364 1.123494 -1.303117 -0.028236 0.191544 0.000000 0.000001 0.000000 
-7.485542 111.174461 0.576338 2.953216 25.057867 0.390899 4.036136 4.611877 -1.751148 0.745717 2.934844 0.846918 0.000000 0.000000 0.000000 0.756890 3.044784 0.839890 -3.457283 7.577858 -5.438824 -6.770384 3.128960 8.503115 -0.000000 -0.000002 -0.000000 -0.084039 0.806779 -1.884201 0.000000 0.000000 0.000000 -70.540302 1.291859 -27.179155 2.895118 -73.071044 3.786801 -31.235654 28.851385 9.761309 17.563628 -5.694005 -12.929207 10.852332 26.148384 8.654079 20.924872 51.116436 0.219812 -0.000002 0.000001 0.000004 13.978256 1.203579 -55.006041 0.372682 1.163859 -65.441880 1.986575 2.154434 -57.665129 0.000001 0.000001 0.000001 7.502547 1.175426 -63.755274 1.809520 1.478252 -64.569856 0.130988 -0.903798 -43.270802 0.000001 0.000001 0.000000 8.574328 2.179102 -75.149006 -0.208044 1.014711 -57.856811 0.433186 1.760595 -53.580891 -0.000001 0.000002 0.000002 10.030092 13.637041 -84.750237 0.878815 0.065148 -64.595496 1.137605 1.262758 -55.016187 0.000001 0.000000 -0.000002 4.018017 15.343499 6.386901 0.000000 0.000000 0.000000 12.582819 -8.065735 63.241855 15.851402 41.731961 -6.506788 0.197828 5.306173 3.964805 15.788505 -2.734488 -17.205870 -2.198349 -31.113557 7.361203 -6.563763 -4.145950 2.404834 -0.000002 0.000000 -0.000000 2.074929 -2.893524 7.958537 -2.120530 -2.465798 18.342301 -1.983463 -4.778943 13.859386 0.000001 -0.000000 -0.000001 -2.070266 -5.549539 13.692533 0.297851 -5.078837 26.981079 -0.651067 -1.204517 16.117291 -0.000000 0.000001 0.000003 -2.794191 -9.231169 13.280198 4.022280 -4.012943 34.157264 2.111041 -3.135780 16.483195 -0.000000 -0.000002 -0.000002 -5.666643 -13.418894 22.958441 10.777982 -2.333354 36.135741 6.442921 -3.002339 16.439164 -0.000001 -0.000000 -0.000001 -31.230992 -21.989031 3.004087 27.572994 15.805625 -7.589117 2.846572 -2.389819 -7.022618 -3.078444 -1.876309 -0.501847 0.000000 -0.000001 -0.000000 -4.387120 -24.931224 -8.816730 28.105110 -7.912099 7.294203 -24.167895 -10.591178 1.106270 -1.298627 -0.028014 0.181752 -0.000000 0.000003 0.000000 
-7.507937 111.177299 0.431222 3.240337 23.592496 0.221446 4.086889 4.506610 -1.791516 0.790329 2.868908 0.853545 0.000000 0.000000 0.000000 0.800374 2.980536 0.848367 -3.958431 6.548242 -5.148043 -6.079051 2.232477 8.598652 -0.000001 -0.000004 -0.000000 -0.018817 0.448298 -1.891518 0.000000 0.000000 0.000000 -70.716555 1.401117 -27.633595 3.155449 -74.131062 3.832620 -32.165075 28.983372 10.355861 17.563628 -5.694004 -12.929209 10.852331 26.148389 8.654077 20.924870 51.116429 0.219811 0.000000 0.000002 0.000003 13.978255 1.203580 -55.006041 0.372680 1.163862 -65.441887 1.986574 2.154431 -57.665136 0.000000 0.000002 0.000002 7.502548 1.175428 -63.755267 1.809522 1.478252 -64.569856 0.130988 -0.903799 -43.270795 0.000000 -0.000001 -0.000000 8.574328 2.179102 -75.148999 -0.208043 1.014711 -57.856804 0.433186 1.760595 -53.580891 -0.000000 0.000000 -0.000001 10.030090 13.637043 -84.750237 0.878813 0.065147 -64.595490 1.137605 1.262764 -55.016190 -0.000000 -0.000001 0.000001 4.046388 15.322761 6.229103 0.000000 0.000000 0.000000 12.299355 -7.930873 63.218107 15.936184 42.171630 -6.586655 0.097000 5.468609 3.943420 15.788505 -2.734488 -17.205870 -2.198344 -31.113557 7.361197 -6.563762 -4.145945 2.404837 -0.000001 -0.000002 0.000000 2.075184 -2.893280 7.852203 -2.120025 -2.465285 18.240804 -1.984621 -4.778869 13.758808 0.000001 -0.000001 0.000001 -2.071536 -5.547808 13.586785 0.297062 -5.079001 26.880717 -0.650942 -1.204166 16.017898 -0.000000 -0.000001 -0.000001 -2.798432 -9.227078 13.172290 4.022036 -4.012410 34.056020 2.111220 -3.134929 16.382149 0.000001 -0.000001 0.000002 -5.674512 -13.400888 22.869609 10.777693 -2.333368 36.041262 6.442834 -3.000983 16.348360 -0.000001 0.000000 0.000001 -31.194454 -21.378166 3.690548 27.792262 16.151649 -7.633300 2.687783 -2.126577 -7.176857 -3.123989 -1.938765 -0.511914 -0.000000 -0.000001 -0.000000 -5.049938 -23.856119 -8.794943 28.285632 -7.693132 7.209966 -23.999471 -10.453518 1.075962 -1.294259 -0.027911 0.178330 -0.000000 -0.000001 -0.000000 
